<?xml version="1.0" encoding="UTF-8"?>
<svg version="1.1" xmlns="http://www.w3.org/2000/svg" width="96" height="96">
<path d="M0 0 C1.31875626 -0.06567421 1.31875626 -0.06567421 2.66415405 -0.13267517 C5.50321275 -0.24627196 8.33870854 -0.30884484 11.1796875 -0.3515625 C12.13576904 -0.36891449 13.09185059 -0.38626648 14.0769043 -0.40414429 C24.99785346 -0.48867854 33.95747479 -0.44340226 42.33935547 7.22607422 C46.26046426 11.6242498 49.94262993 15.95609107 51.97070312 21.55004883 C52.91201156 24.15271014 52.91201156 24.15271014 55.14819336 25.93530273 C57.75525861 28.7907553 57.55234495 30.6128582 57.55859375 34.43359375 C57.58663086 36.28887695 57.58663086 36.28887695 57.61523438 38.18164062 C57.61587891 39.47005859 57.61652344 40.75847656 57.6171875 42.0859375 C57.62610234 44.6394033 57.64763279 47.19286562 57.68359375 49.74609375 C57.68431885 50.87797119 57.68504395 52.00984863 57.68579102 53.17602539 C58.10190801 56.3879198 58.71111639 56.96584587 61.0546875 59.0234375 C61.2421875 62.2109375 61.2421875 62.2109375 61.0546875 65.0234375 C59.7346875 65.0234375 58.4146875 65.0234375 57.0546875 65.0234375 C57.06516113 65.61882324 57.07563477 66.21420898 57.08642578 66.82763672 C57.12792699 69.51786093 57.15399454 72.20801787 57.1796875 74.8984375 C57.19644531 75.83558594 57.21320313 76.77273437 57.23046875 77.73828125 C57.23691406 78.63417969 57.24335937 79.53007813 57.25 80.453125 C57.26047363 81.28054199 57.27094727 82.10795898 57.28173828 82.96044922 C57.0546875 85.0234375 57.0546875 85.0234375 55.0546875 87.0234375 C52.70166016 87.27740479 52.70166016 87.27740479 49.71875 87.28222656 C48.60419434 87.28853088 47.48963867 87.29483521 46.34130859 87.30133057 C44.52880615 87.29525787 44.52880615 87.29525787 42.6796875 87.2890625 C40.82657959 87.29193268 40.82657959 87.29193268 38.93603516 87.29486084 C35.64877343 87.2965736 32.36169963 87.28850449 29.07446289 87.27734375 C27.0567422 87.27344147 25.03919549 87.27732921 23.02148438 87.28417969 C19.15746922 87.29649754 15.29371322 87.29504728 11.4296875 87.2890625 C10.22135254 87.29311096 9.01301758 87.29715942 7.76806641 87.30133057 C6.65351074 87.29502625 5.53895508 87.28872192 4.390625 87.28222656 C3.40626465 87.28063538 2.4219043 87.27904419 1.40771484 87.27740479 C-0.9453125 87.0234375 -0.9453125 87.0234375 -2.9453125 85.0234375 C-2.9453125 83.7034375 -2.9453125 82.3834375 -2.9453125 81.0234375 C-4.0384375 80.9409375 -5.1315625 80.8584375 -6.2578125 80.7734375 C-9.9453125 80.0234375 -9.9453125 80.0234375 -11.6574707 78.53417969 C-13.59124429 74.76414602 -13.31594965 71.27711656 -13.23828125 67.1015625 C-13.23403641 66.24157654 -13.22979156 65.38159058 -13.22541809 64.49554443 C-13.20865366 61.7545208 -13.17100595 59.01423811 -13.1328125 56.2734375 C-13.11776275 54.41277105 -13.10407485 52.55209305 -13.09179688 50.69140625 C-13.05875749 46.1351321 -13.00699083 41.57941034 -12.9453125 37.0234375 C-9.1953125 35.8984375 -9.1953125 35.8984375 -6.9453125 37.0234375 C-6.6153125 49.2334375 -6.2853125 61.4434375 -5.9453125 74.0234375 C-5.2853125 74.0234375 -4.6253125 74.0234375 -3.9453125 74.0234375 C-3.93722565 73.26366608 -3.92913879 72.50389465 -3.92080688 71.72109985 C-3.84294523 64.56952317 -3.75568064 57.418153 -3.65778542 50.26682472 C-3.60778698 46.59003109 -3.56145757 42.91326668 -3.5234375 39.23632812 C-3.48662904 35.68950047 -3.44028183 32.14291529 -3.38724899 28.5962944 C-3.36868128 27.2415224 -3.35358212 25.88669837 -3.34196854 24.53184891 C-3.32514741 22.63782894 -3.29497634 20.74394162 -3.26416016 18.85009766 C-3.24417465 17.23127182 -3.24417465 17.23127182 -3.2237854 15.57974243 C-2.9453125 13.0234375 -2.9453125 13.0234375 -0.9453125 11.0234375 C1.85205078 10.79638672 1.85205078 10.79638672 5.375 10.828125 C7.26025391 10.83779297 7.26025391 10.83779297 9.18359375 10.84765625 C11.16166016 10.87279297 11.16166016 10.87279297 13.1796875 10.8984375 C14.51952471 10.90846767 15.85936902 10.91759346 17.19921875 10.92578125 C20.48455323 10.94941675 23.76953215 10.98236516 27.0546875 11.0234375 C27.0546875 9.7034375 27.0546875 8.3834375 27.0546875 7.0234375 C10.7196875 7.5184375 10.7196875 7.5184375 -5.9453125 8.0234375 C-6.2753125 13.6334375 -6.6053125 19.2434375 -6.9453125 25.0234375 C-8.9253125 25.0234375 -10.9053125 25.0234375 -12.9453125 25.0234375 C-13.06169286 21.77373981 -13.13261831 18.5245792 -13.1953125 15.2734375 C-13.22882812 14.35304688 -13.26234375 13.43265625 -13.296875 12.484375 C-13.30976563 11.59492188 -13.32265625 10.70546875 -13.3359375 9.7890625 C-13.35688477 8.97211914 -13.37783203 8.15517578 -13.39941406 7.31347656 C-11.99617372 0.23692043 -5.99340789 0.26061259 0 0 Z " fill="#8BE6F1" transform="translate(28.9453125,6.9765625)"/>
<path d="M0 0 C0.87926147 -0.04455322 1.75852295 -0.08910645 2.66442871 -0.13500977 C32.79260168 -1.36017518 32.79260168 -1.36017518 42.44140625 6.35742188 C48.84687336 12.91380313 51.79811315 18.95814207 52.22802734 28.15771484 C52.15782657 32.50094445 51.76054056 36.7388491 51.0546875 41.0234375 C49.7346875 41.6834375 48.4146875 42.3434375 47.0546875 43.0234375 C45.0546875 41.0234375 45.0546875 41.0234375 44.859375 37.328125 C44.8726785 35.85143642 44.89653915 34.37481392 44.9296875 32.8984375 C44.93871094 32.14433594 44.94773438 31.39023437 44.95703125 30.61328125 C44.9806188 28.74986496 45.01649031 26.88661157 45.0546875 25.0234375 C44.09046875 25.08144531 43.12625 25.13945313 42.1328125 25.19921875 C40.86953125 25.24433594 39.60625 25.28945313 38.3046875 25.3359375 C37.05171875 25.39394531 35.79875 25.45195313 34.5078125 25.51171875 C31.0546875 25.0234375 31.0546875 25.0234375 27.0546875 20.0234375 C27.0546875 15.7334375 27.0546875 11.4434375 27.0546875 7.0234375 C10.7196875 7.5184375 10.7196875 7.5184375 -5.9453125 8.0234375 C-6.2753125 13.6334375 -6.6053125 19.2434375 -6.9453125 25.0234375 C-8.9253125 25.0234375 -10.9053125 25.0234375 -12.9453125 25.0234375 C-13.06169286 21.77373981 -13.13261831 18.5245792 -13.1953125 15.2734375 C-13.22882812 14.35304688 -13.26234375 13.43265625 -13.296875 12.484375 C-13.30976563 11.59492188 -13.32265625 10.70546875 -13.3359375 9.7890625 C-13.35688477 8.97211914 -13.37783203 8.15517578 -13.39941406 7.31347656 C-11.99608462 0.23647108 -5.9934424 0.26122097 0 0 Z " fill="#181A3F" transform="translate(28.9453125,6.9765625)"/>
<path d="M0 0 C0.33 12.21 0.66 24.42 1 37 C5.18816406 37.09087891 5.18816406 37.09087891 9.4609375 37.18359375 C12.1582313 37.24536117 14.85548221 37.30875797 17.55273438 37.37231445 C19.43062542 37.41568789 21.30855652 37.45736118 23.18652344 37.49731445 C25.8822844 37.55495876 28.57784327 37.61866981 31.2734375 37.68359375 C32.11619232 37.70030624 32.95894714 37.71701874 33.82723999 37.73423767 C39.77225659 37.88612829 39.77225659 37.88612829 42 39 C42 40.32 42 41.64 42 43 C36.77697624 45.61151188 28.42364336 44.31370173 22.60668945 44.35009766 C20.66581225 44.36665444 18.72499594 44.39394088 16.78442383 44.43212891 C13.98486735 44.4869334 11.18673962 44.50877664 8.38671875 44.5234375 C7.52197433 44.54610687 6.65722992 44.56877625 5.76628113 44.59213257 C1.6086953 44.57757604 -0.48958242 44.32884788 -4.05615234 42.03100586 C-6.71037662 37.89232282 -6.63850209 34.79606518 -6.48828125 29.98046875 C-6.48120651 29.12189774 -6.47413177 28.26332672 -6.46684265 27.3787384 C-6.43894402 24.64742397 -6.37621691 21.91819042 -6.3125 19.1875 C-6.28741114 17.3314099 -6.26459899 15.47528754 -6.24414062 13.61914062 C-6.18913253 9.07863028 -6.10289364 4.53966743 -6 0 C-4 -1 -4 -1 0 0 Z " fill="#18193F" transform="translate(22,44)"/>
<path d="M0 0 C3.13089246 1.31390027 5.27293939 2.98872611 7.81640625 5.23828125 C8.69941406 5.99496094 9.58242187 6.75164063 10.4921875 7.53125 C12.94424935 10.60227892 12.91989842 12.21810671 12.50390625 16.05078125 C10.25390625 16.30078125 10.25390625 16.30078125 7.50390625 16.05078125 C6.18390625 14.73078125 4.86390625 13.41078125 3.50390625 12.05078125 C3.17390625 19.64078125 2.84390625 27.23078125 2.50390625 35.05078125 C0.02890625 35.54578125 0.02890625 35.54578125 -2.49609375 36.05078125 C-4.17910044 34.36777456 -3.72418452 32.23069398 -3.8125 29.921875 C-3.85439453 28.88740234 -3.89628906 27.85292969 -3.93945312 26.78710938 C-3.97876953 25.69849609 -4.01808594 24.60988281 -4.05859375 23.48828125 C-4.10177734 22.39580078 -4.14496094 21.30332031 -4.18945312 20.17773438 C-4.29591443 17.46888561 -4.39792891 14.75994133 -4.49609375 12.05078125 C-5.099375 12.7159375 -5.70265625 13.38109375 -6.32421875 14.06640625 C-7.0409375 14.72125 -7.75765625 15.37609375 -8.49609375 16.05078125 C-11.24609375 15.80078125 -11.24609375 15.80078125 -13.49609375 15.05078125 C-13.04539517 10.24910794 -11.08949581 8.04885847 -7.74609375 4.67578125 C-6.885 3.78117187 -6.02390625 2.8865625 -5.13671875 1.96484375 C-2.49609375 0.05078125 -2.49609375 0.05078125 0 0 Z " fill="#1C2045" transform="translate(77.49609375,55.94921875)"/>
<path d="M0 0 C1.60279192 0.00015914 3.20558896 0.00585476 4.80834961 0.01586914 C5.65038437 0.01728409 6.49241913 0.01869904 7.35997009 0.02015686 C10.06024671 0.02577276 12.76044163 0.03832791 15.46069336 0.05102539 C17.28686404 0.05603834 19.11303602 0.06060161 20.93920898 0.06469727 C25.42556878 0.07574735 29.9118672 0.0930226 34.39819336 0.11352539 C34.78038103 1.76967196 35.11214438 3.43809563 35.39819336 5.11352539 C34.39819336 6.11352539 34.39819336 6.11352539 30.79638672 6.22705078 C29.19359479 6.22689164 27.59079776 6.22119602 25.98803711 6.21118164 C25.14600235 6.20976669 24.30396759 6.20835175 23.43641663 6.20689392 C20.73614001 6.20127802 18.03594508 6.18872287 15.33569336 6.17602539 C13.50952268 6.17101244 11.6833507 6.16644918 9.85717773 6.16235352 C5.37081794 6.15130343 0.88451952 6.13402818 -3.60180664 6.11352539 C-3.98399431 4.45737882 -4.31575766 2.78895515 -4.60180664 1.11352539 C-3.60180664 0.11352539 -3.60180664 0.11352539 0 0 Z " fill="#191C42" transform="translate(32.601806640625,37.886474609375)"/>
<path d="M0 0 C1.43352212 0.00015908 2.86704998 0.00585132 4.30053711 0.01586914 C5.43041298 0.01799156 5.43041298 0.01799156 6.58311462 0.02015686 C8.99807646 0.02577163 11.41294687 0.03832656 13.82788086 0.05102539 C15.46134307 0.05603849 17.09480672 0.06060173 18.72827148 0.06469727 C22.74067671 0.07574585 26.75301326 0.09302033 30.76538086 0.11352539 C31.42538086 1.43352539 32.08538086 2.75352539 32.76538086 4.11352539 C30.76538086 6.11352539 30.76538086 6.11352539 27.41723633 6.34057617 C25.98897452 6.34025914 24.56068874 6.328939 23.13256836 6.30883789 C22.00481491 6.30459305 22.00481491 6.30459305 20.85427856 6.30026245 C18.44948508 6.28905413 16.04506205 6.26394891 13.64038086 6.23852539 C12.01147998 6.22849641 10.38257328 6.21937042 8.75366211 6.21118164 C4.7574253 6.18911274 0.76146592 6.1545789 -3.23461914 6.11352539 C-3.61680681 4.45737882 -3.94857016 2.78895515 -4.23461914 1.11352539 C-3.23461914 0.11352539 -3.23461914 0.11352539 0 0 Z " fill="#191B41" transform="translate(32.234619140625,49.886474609375)"/>
<path d="M0 0 C1.084021 0.00523682 2.16804199 0.01047363 3.28491211 0.01586914 C5.03964844 0.02070312 5.03964844 0.02070312 6.82983398 0.02563477 C8.67738281 0.03820313 8.67738281 0.03820313 10.56225586 0.05102539 C12.41560547 0.05779297 12.41560547 0.05779297 14.30639648 0.06469727 C17.37089703 0.07652931 20.43530307 0.09301366 23.49975586 0.11352539 C24.15975586 1.43352539 24.81975586 2.75352539 25.49975586 4.11352539 C23.49975586 6.11352539 23.49975586 6.11352539 20.88598633 6.34057617 C19.80720215 6.33010254 18.72841797 6.31962891 17.61694336 6.30883789 C16.4503418 6.30239258 15.28374023 6.29594727 14.08178711 6.28930664 C12.8584668 6.27254883 11.63514648 6.25579102 10.37475586 6.23852539 C9.14370117 6.22950195 7.91264648 6.22047852 6.64428711 6.21118164 C3.59591771 6.18755087 0.54793204 6.15460593 -2.50024414 6.11352539 C-2.88243181 4.45737882 -3.21419516 2.78895515 -3.50024414 1.11352539 C-2.50024414 0.11352539 -2.50024414 0.11352539 0 0 Z " fill="#1A1D42" transform="translate(31.500244140625,61.886474609375)"/>
<path d="M0 0 C1.16959987 0.97566112 2.33561177 1.955625 3.5 2.9375 C4.1496875 3.48277344 4.799375 4.02804688 5.46875 4.58984375 C5.9740625 5.05519531 6.479375 5.52054688 7 6 C7 6.33 7 6.66 7 7 C4.69 7 2.38 7 0 7 C0 4.69 0 2.38 0 0 Z " fill="#8AE4EF" transform="translate(62,19)"/>
</svg>
